<mxfile host="Electron" modified="2023-05-27T15:57:08.567Z" agent="Mozilla/5.0 (Macintosh; Intel Mac OS X 10_15_7) AppleWebKit/537.36 (KHTML, like Gecko) draw.io/21.2.1 Chrome/112.0.5615.87 Electron/24.1.2 Safari/537.36" etag="3i3X9Fm4quYfwjVzRYPK" version="21.2.1" type="device">
  <diagram name="Page-1" id="H1nZVYqxkzLZFgEqRADx">
    <mxGraphModel dx="2690" dy="10700" grid="1" gridSize="10" guides="1" tooltips="1" connect="1" arrows="1" fold="1" page="1" pageScale="1" pageWidth="850" pageHeight="1100" math="0" shadow="0">
      <root>
        <mxCell id="0" />
        <mxCell id="1" parent="0" />
        <mxCell id="AsBp8XiL8Dx4Y6rQVwFH-521" value="R, W: 130, H: 61, ORDER: 10, GC: {61, 25, 16, 28, 9, 7, 2, 5, 36, 33} " style="text;html=1;strokeColor=none;fillColor=none;align=center;verticalAlign=middle;whiteSpace=wrap;rounded=0;fontSize=32;flipV=1;" parent="1" vertex="1">
          <mxGeometry x="5380" y="280" width="1300" height="30" as="geometry" />
        </mxCell>
        <mxCell id="AsBp8XiL8Dx4Y6rQVwFH-565" value="R, W: 130, H: 79, ORDER: 10, GC: {34, 23, 35, 11, 12, 38, 45, 44, 3, 41} " style="text;html=1;strokeColor=none;fillColor=none;align=center;verticalAlign=middle;whiteSpace=wrap;rounded=0;fontSize=32;flipV=1;" parent="1" vertex="1">
          <mxGeometry x="5370" y="1000" width="1300" height="30" as="geometry" />
        </mxCell>
        <mxCell id="AsBp8XiL8Dx4Y6rQVwFH-675" value="R, W: 130, H: 69, ORDER: 10, GC: {69, 33, 28, 5, 7, 16, 36, 2, 9, 25} " style="text;html=1;strokeColor=none;fillColor=none;align=center;verticalAlign=middle;whiteSpace=wrap;rounded=0;fontSize=32;flipV=1;" parent="1" vertex="1">
          <mxGeometry x="5340" y="1900" width="1300" height="30" as="geometry" />
        </mxCell>
        <mxCell id="AsBp8XiL8Dx4Y6rQVwFH-7876" value="R, W: 130, H: 127, ORDER: 18, GC: {59, 37, 34, 3, 31, 13, 7, 8, 6, 1, 12, 5, 4, 16, 9, 15, 68, 62} " style="text;html=1;strokeColor=none;fillColor=none;align=center;verticalAlign=middle;whiteSpace=wrap;rounded=0;fontSize=32;flipV=1;" parent="1" vertex="1">
          <mxGeometry x="5400" y="2800" width="1300" height="30" as="geometry" />
        </mxCell>
        <mxCell id="AsBp8XiL8Dx4Y6rQVwFH-16850" value="R, W: 130, H: 125, ORDER: 20, GC: {54, 22, 20, 34, 9, 11, 15, 7, 6, 10, 2, 4, 8, 3, 17, 5, 32, 27, 71, 59} " style="text;html=1;strokeColor=none;fillColor=none;align=center;verticalAlign=middle;whiteSpace=wrap;rounded=0;fontSize=32;flipV=1;" parent="1" vertex="1">
          <mxGeometry x="5340" y="4360" width="1300" height="30" as="geometry" />
        </mxCell>
        <mxCell id="AsBp8XiL8Dx4Y6rQVwFH-17354" value="R, W: 130, H: 95, ORDER: 20, GC: {42, 31, 27, 30, 24, 3, 11, 20, 14, 10, 9, 1, 8, 4, 7, 18, 15, 53, 44, 33} " style="text;html=1;strokeColor=none;fillColor=none;align=center;verticalAlign=middle;whiteSpace=wrap;rounded=0;fontSize=32;flipV=1;" parent="1" vertex="1">
          <mxGeometry x="5330" y="5830" width="1300" height="30" as="geometry" />
        </mxCell>
        <mxCell id="AsBp8XiL8Dx4Y6rQVwFH-17585" value="R, W: 130, H: 90, ORDER: 20, GC: {40, 23, 24, 17, 6, 43, 5, 19, 11, 50, 8, 7, 3, 4, 14, 1, 10, 9, 47, 33} " style="text;html=1;strokeColor=none;fillColor=none;align=center;verticalAlign=middle;whiteSpace=wrap;rounded=0;fontSize=32;flipV=1;" parent="1" vertex="1">
          <mxGeometry x="5355" y="6970" width="1300" height="30" as="geometry" />
        </mxCell>
        <mxCell id="AsBp8XiL8Dx4Y6rQVwFH-22933" value="R, W: 130, H: 104, ORDER: 21, GC: {47, 37, 46, 10, 14, 13, 4, 8, 1, 16, 11, 5, 3, 23, 2, 12, 7, 57, 15, 38, 35} " style="text;html=1;strokeColor=none;fillColor=none;align=center;verticalAlign=middle;whiteSpace=wrap;rounded=0;fontSize=32;flipV=1;" parent="1" vertex="1">
          <mxGeometry x="5345" y="8100" width="1300" height="30" as="geometry" />
        </mxCell>
        <mxCell id="KLLtWxpl7piehva7nVAB-1" value="" style="group;flipV=1;" vertex="1" connectable="0" parent="1">
          <mxGeometry x="5380" y="330" width="1300" height="610" as="geometry" />
        </mxCell>
        <mxCell id="761dnnyQ54j-Cl0NHfQN-522" value="61" style="rounded=0;whiteSpace=wrap;html=1;fontSize=32;" parent="KLLtWxpl7piehva7nVAB-1" vertex="1">
          <mxGeometry width="610" height="610" as="geometry" />
        </mxCell>
        <mxCell id="761dnnyQ54j-Cl0NHfQN-523" value="25" style="rounded=0;whiteSpace=wrap;html=1;fontSize=32;fillColor=#f5f5f5;fontColor=#333333;strokeColor=#666666;" parent="KLLtWxpl7piehva7nVAB-1" vertex="1">
          <mxGeometry x="610" y="360" width="250" height="250" as="geometry" />
        </mxCell>
        <mxCell id="761dnnyQ54j-Cl0NHfQN-524" value="16" style="rounded=0;whiteSpace=wrap;html=1;fontSize=32;fillColor=#f5f5f5;fontColor=#333333;strokeColor=#666666;" parent="KLLtWxpl7piehva7nVAB-1" vertex="1">
          <mxGeometry x="860" y="450" width="160" height="160" as="geometry" />
        </mxCell>
        <mxCell id="761dnnyQ54j-Cl0NHfQN-525" value="28" style="rounded=0;whiteSpace=wrap;html=1;fontSize=32;fillColor=#f5f5f5;fontColor=#333333;strokeColor=#666666;" parent="KLLtWxpl7piehva7nVAB-1" vertex="1">
          <mxGeometry x="1020" y="330" width="280" height="280" as="geometry" />
        </mxCell>
        <mxCell id="761dnnyQ54j-Cl0NHfQN-526" value="9" style="rounded=0;whiteSpace=wrap;html=1;fontSize=32;fillColor=#f5f5f5;fontColor=#333333;strokeColor=#666666;" parent="KLLtWxpl7piehva7nVAB-1" vertex="1">
          <mxGeometry x="860" y="360" width="90" height="90" as="geometry" />
        </mxCell>
        <mxCell id="761dnnyQ54j-Cl0NHfQN-527" value="7" style="rounded=0;whiteSpace=wrap;html=1;fontSize=32;fillColor=#f5f5f5;fontColor=#333333;strokeColor=#666666;" parent="KLLtWxpl7piehva7nVAB-1" vertex="1">
          <mxGeometry x="950" y="380" width="70" height="70" as="geometry" />
        </mxCell>
        <mxCell id="761dnnyQ54j-Cl0NHfQN-528" value="2" style="rounded=0;whiteSpace=wrap;html=1;fontSize=32;fillColor=#f5f5f5;fontColor=#333333;strokeColor=#666666;" parent="KLLtWxpl7piehva7nVAB-1" vertex="1">
          <mxGeometry x="950" y="360" width="20" height="20" as="geometry" />
        </mxCell>
        <mxCell id="761dnnyQ54j-Cl0NHfQN-529" value="5" style="rounded=0;whiteSpace=wrap;html=1;fontSize=32;fillColor=#f5f5f5;fontColor=#333333;strokeColor=#666666;" parent="KLLtWxpl7piehva7nVAB-1" vertex="1">
          <mxGeometry x="970" y="330" width="50" height="50" as="geometry" />
        </mxCell>
        <mxCell id="761dnnyQ54j-Cl0NHfQN-530" value="36" style="rounded=0;whiteSpace=wrap;html=1;fontSize=32;fillColor=#f5f5f5;fontColor=#333333;strokeColor=#666666;" parent="KLLtWxpl7piehva7nVAB-1" vertex="1">
          <mxGeometry x="610" width="360" height="360" as="geometry" />
        </mxCell>
        <mxCell id="761dnnyQ54j-Cl0NHfQN-531" value="33" style="rounded=0;whiteSpace=wrap;html=1;fontSize=32;fillColor=#f5f5f5;fontColor=#333333;strokeColor=#666666;" parent="KLLtWxpl7piehva7nVAB-1" vertex="1">
          <mxGeometry x="970" width="330" height="330" as="geometry" />
        </mxCell>
        <mxCell id="KLLtWxpl7piehva7nVAB-2" value="" style="group;flipV=1;" vertex="1" connectable="0" parent="1">
          <mxGeometry x="5370" y="1050" width="1300" height="790" as="geometry" />
        </mxCell>
        <mxCell id="761dnnyQ54j-Cl0NHfQN-566" value="34" style="rounded=0;whiteSpace=wrap;html=1;fontSize=32;" parent="KLLtWxpl7piehva7nVAB-2" vertex="1">
          <mxGeometry y="450" width="340" height="340" as="geometry" />
        </mxCell>
        <mxCell id="761dnnyQ54j-Cl0NHfQN-567" value="23" style="rounded=0;whiteSpace=wrap;html=1;fontSize=32;" parent="KLLtWxpl7piehva7nVAB-2" vertex="1">
          <mxGeometry x="340" y="560" width="230" height="230" as="geometry" />
        </mxCell>
        <mxCell id="761dnnyQ54j-Cl0NHfQN-568" value="35" style="rounded=0;whiteSpace=wrap;html=1;fontSize=32;" parent="KLLtWxpl7piehva7nVAB-2" vertex="1">
          <mxGeometry x="570" y="440" width="350" height="350" as="geometry" />
        </mxCell>
        <mxCell id="761dnnyQ54j-Cl0NHfQN-569" value="11" style="rounded=0;whiteSpace=wrap;html=1;fontSize=32;" parent="KLLtWxpl7piehva7nVAB-2" vertex="1">
          <mxGeometry x="340" y="450" width="110" height="110" as="geometry" />
        </mxCell>
        <mxCell id="761dnnyQ54j-Cl0NHfQN-570" value="12" style="rounded=0;whiteSpace=wrap;html=1;fontSize=32;" parent="KLLtWxpl7piehva7nVAB-2" vertex="1">
          <mxGeometry x="450" y="440" width="120" height="120" as="geometry" />
        </mxCell>
        <mxCell id="761dnnyQ54j-Cl0NHfQN-571" value="38" style="rounded=0;whiteSpace=wrap;html=1;fontSize=32;" parent="KLLtWxpl7piehva7nVAB-2" vertex="1">
          <mxGeometry x="920" y="410" width="380" height="380" as="geometry" />
        </mxCell>
        <mxCell id="761dnnyQ54j-Cl0NHfQN-572" value="45" style="rounded=0;whiteSpace=wrap;html=1;fontSize=32;" parent="KLLtWxpl7piehva7nVAB-2" vertex="1">
          <mxGeometry width="450" height="450" as="geometry" />
        </mxCell>
        <mxCell id="761dnnyQ54j-Cl0NHfQN-573" value="44" style="rounded=0;whiteSpace=wrap;html=1;fontSize=32;" parent="KLLtWxpl7piehva7nVAB-2" vertex="1">
          <mxGeometry x="450" width="440" height="440" as="geometry" />
        </mxCell>
        <mxCell id="761dnnyQ54j-Cl0NHfQN-574" value="3" style="rounded=0;whiteSpace=wrap;html=1;fontSize=32;" parent="KLLtWxpl7piehva7nVAB-2" vertex="1">
          <mxGeometry x="890" y="410" width="30" height="30" as="geometry" />
        </mxCell>
        <mxCell id="761dnnyQ54j-Cl0NHfQN-575" value="41" style="rounded=0;whiteSpace=wrap;html=1;fontSize=32;" parent="KLLtWxpl7piehva7nVAB-2" vertex="1">
          <mxGeometry x="890" width="410" height="410" as="geometry" />
        </mxCell>
        <mxCell id="KLLtWxpl7piehva7nVAB-3" value="" style="group;flipV=1;" vertex="1" connectable="0" parent="1">
          <mxGeometry x="5340" y="1950" width="1300" height="690" as="geometry" />
        </mxCell>
        <mxCell id="761dnnyQ54j-Cl0NHfQN-676" value="69" style="rounded=0;whiteSpace=wrap;html=1;fontSize=32;" parent="KLLtWxpl7piehva7nVAB-3" vertex="1">
          <mxGeometry width="690" height="690" as="geometry" />
        </mxCell>
        <mxCell id="761dnnyQ54j-Cl0NHfQN-677" value="33" style="rounded=0;whiteSpace=wrap;html=1;fontSize=32;fillColor=#f5f5f5;fontColor=#333333;strokeColor=#666666;" parent="KLLtWxpl7piehva7nVAB-3" vertex="1">
          <mxGeometry x="690" y="360" width="330" height="330" as="geometry" />
        </mxCell>
        <mxCell id="761dnnyQ54j-Cl0NHfQN-678" value="28" style="rounded=0;whiteSpace=wrap;html=1;fontSize=32;fillColor=#f5f5f5;fontColor=#333333;strokeColor=#666666;" parent="KLLtWxpl7piehva7nVAB-3" vertex="1">
          <mxGeometry x="1020" y="410" width="280" height="280" as="geometry" />
        </mxCell>
        <mxCell id="761dnnyQ54j-Cl0NHfQN-679" value="5" style="rounded=0;whiteSpace=wrap;html=1;fontSize=32;fillColor=#f5f5f5;fontColor=#333333;strokeColor=#666666;" parent="KLLtWxpl7piehva7nVAB-3" vertex="1">
          <mxGeometry x="1020" y="360" width="50" height="50" as="geometry" />
        </mxCell>
        <mxCell id="761dnnyQ54j-Cl0NHfQN-680" value="7" style="rounded=0;whiteSpace=wrap;html=1;fontSize=32;fillColor=#f5f5f5;fontColor=#333333;strokeColor=#666666;" parent="KLLtWxpl7piehva7nVAB-3" vertex="1">
          <mxGeometry x="1070" y="340" width="70" height="70" as="geometry" />
        </mxCell>
        <mxCell id="761dnnyQ54j-Cl0NHfQN-681" value="16" style="rounded=0;whiteSpace=wrap;html=1;fontSize=32;fillColor=#f5f5f5;fontColor=#333333;strokeColor=#666666;" parent="KLLtWxpl7piehva7nVAB-3" vertex="1">
          <mxGeometry x="1140" y="250" width="160" height="160" as="geometry" />
        </mxCell>
        <mxCell id="761dnnyQ54j-Cl0NHfQN-682" value="36" style="rounded=0;whiteSpace=wrap;html=1;fontSize=32;fillColor=#f5f5f5;fontColor=#333333;strokeColor=#666666;" parent="KLLtWxpl7piehva7nVAB-3" vertex="1">
          <mxGeometry x="690" width="360" height="360" as="geometry" />
        </mxCell>
        <mxCell id="761dnnyQ54j-Cl0NHfQN-683" value="2" style="rounded=0;whiteSpace=wrap;html=1;fontSize=32;fillColor=#f5f5f5;fontColor=#333333;strokeColor=#666666;" parent="KLLtWxpl7piehva7nVAB-3" vertex="1">
          <mxGeometry x="1050" y="340" width="20" height="20" as="geometry" />
        </mxCell>
        <mxCell id="761dnnyQ54j-Cl0NHfQN-684" value="9" style="rounded=0;whiteSpace=wrap;html=1;fontSize=32;fillColor=#f5f5f5;fontColor=#333333;strokeColor=#666666;" parent="KLLtWxpl7piehva7nVAB-3" vertex="1">
          <mxGeometry x="1050" y="250" width="90" height="90" as="geometry" />
        </mxCell>
        <mxCell id="761dnnyQ54j-Cl0NHfQN-685" value="25" style="rounded=0;whiteSpace=wrap;html=1;fontSize=32;fillColor=#f5f5f5;fontColor=#333333;strokeColor=#666666;" parent="KLLtWxpl7piehva7nVAB-3" vertex="1">
          <mxGeometry x="1050" width="250" height="250" as="geometry" />
        </mxCell>
        <mxCell id="KLLtWxpl7piehva7nVAB-4" value="" style="group;flipV=1;" vertex="1" connectable="0" parent="1">
          <mxGeometry x="5400" y="2850" width="1300" height="1270" as="geometry" />
        </mxCell>
        <mxCell id="761dnnyQ54j-Cl0NHfQN-7877" value="59" style="rounded=0;whiteSpace=wrap;html=1;fontSize=32;" parent="KLLtWxpl7piehva7nVAB-4" vertex="1">
          <mxGeometry y="680" width="590" height="590" as="geometry" />
        </mxCell>
        <mxCell id="761dnnyQ54j-Cl0NHfQN-7878" value="37" style="rounded=0;whiteSpace=wrap;html=1;fontSize=32;" parent="KLLtWxpl7piehva7nVAB-4" vertex="1">
          <mxGeometry x="590" y="900" width="370" height="370" as="geometry" />
        </mxCell>
        <mxCell id="761dnnyQ54j-Cl0NHfQN-7879" value="34" style="rounded=0;whiteSpace=wrap;html=1;fontSize=32;" parent="KLLtWxpl7piehva7nVAB-4" vertex="1">
          <mxGeometry x="960" y="930" width="340" height="340" as="geometry" />
        </mxCell>
        <mxCell id="761dnnyQ54j-Cl0NHfQN-7880" value="3" style="rounded=0;whiteSpace=wrap;html=1;fontSize=32;" parent="KLLtWxpl7piehva7nVAB-4" vertex="1">
          <mxGeometry x="960" y="900" width="30" height="30" as="geometry" />
        </mxCell>
        <mxCell id="761dnnyQ54j-Cl0NHfQN-7881" value="31" style="rounded=0;whiteSpace=wrap;html=1;fontSize=32;" parent="KLLtWxpl7piehva7nVAB-4" vertex="1">
          <mxGeometry x="990" y="620" width="310" height="310" as="geometry" />
        </mxCell>
        <mxCell id="761dnnyQ54j-Cl0NHfQN-7882" value="13" style="rounded=0;whiteSpace=wrap;html=1;fontSize=32;" parent="KLLtWxpl7piehva7nVAB-4" vertex="1">
          <mxGeometry x="590" y="770" width="130" height="130" as="geometry" />
        </mxCell>
        <mxCell id="761dnnyQ54j-Cl0NHfQN-7883" value="7" style="rounded=0;whiteSpace=wrap;html=1;fontSize=32;" parent="KLLtWxpl7piehva7nVAB-4" vertex="1">
          <mxGeometry x="720" y="830" width="70" height="70" as="geometry" />
        </mxCell>
        <mxCell id="761dnnyQ54j-Cl0NHfQN-7884" value="8" style="rounded=0;whiteSpace=wrap;html=1;fontSize=32;" parent="KLLtWxpl7piehva7nVAB-4" vertex="1">
          <mxGeometry x="790" y="820" width="80" height="80" as="geometry" />
        </mxCell>
        <mxCell id="761dnnyQ54j-Cl0NHfQN-7885" value="6" style="rounded=0;whiteSpace=wrap;html=1;fontSize=32;" parent="KLLtWxpl7piehva7nVAB-4" vertex="1">
          <mxGeometry x="720" y="770" width="60" height="60" as="geometry" />
        </mxCell>
        <mxCell id="761dnnyQ54j-Cl0NHfQN-7886" value="1" style="rounded=0;whiteSpace=wrap;html=1;fontSize=32;" parent="KLLtWxpl7piehva7nVAB-4" vertex="1">
          <mxGeometry x="780" y="820" width="10" height="10" as="geometry" />
        </mxCell>
        <mxCell id="761dnnyQ54j-Cl0NHfQN-7887" value="12" style="rounded=0;whiteSpace=wrap;html=1;fontSize=32;" parent="KLLtWxpl7piehva7nVAB-4" vertex="1">
          <mxGeometry x="870" y="780" width="120" height="120" as="geometry" />
        </mxCell>
        <mxCell id="761dnnyQ54j-Cl0NHfQN-7888" value="5" style="rounded=0;whiteSpace=wrap;html=1;fontSize=32;" parent="KLLtWxpl7piehva7nVAB-4" vertex="1">
          <mxGeometry x="780" y="770" width="50" height="50" as="geometry" />
        </mxCell>
        <mxCell id="761dnnyQ54j-Cl0NHfQN-7889" value="4" style="rounded=0;whiteSpace=wrap;html=1;fontSize=32;" parent="KLLtWxpl7piehva7nVAB-4" vertex="1">
          <mxGeometry x="830" y="780" width="40" height="40" as="geometry" />
        </mxCell>
        <mxCell id="761dnnyQ54j-Cl0NHfQN-7890" value="16" style="rounded=0;whiteSpace=wrap;html=1;fontSize=32;" parent="KLLtWxpl7piehva7nVAB-4" vertex="1">
          <mxGeometry x="830" y="620" width="160" height="160" as="geometry" />
        </mxCell>
        <mxCell id="761dnnyQ54j-Cl0NHfQN-7891" value="9" style="rounded=0;whiteSpace=wrap;html=1;fontSize=32;" parent="KLLtWxpl7piehva7nVAB-4" vertex="1">
          <mxGeometry x="590" y="680" width="90" height="90" as="geometry" />
        </mxCell>
        <mxCell id="761dnnyQ54j-Cl0NHfQN-7892" value="15" style="rounded=0;whiteSpace=wrap;html=1;fontSize=32;" parent="KLLtWxpl7piehva7nVAB-4" vertex="1">
          <mxGeometry x="680" y="620" width="150" height="150" as="geometry" />
        </mxCell>
        <mxCell id="761dnnyQ54j-Cl0NHfQN-7893" value="68" style="rounded=0;whiteSpace=wrap;html=1;fontSize=32;" parent="KLLtWxpl7piehva7nVAB-4" vertex="1">
          <mxGeometry width="680" height="680" as="geometry" />
        </mxCell>
        <mxCell id="761dnnyQ54j-Cl0NHfQN-7894" value="62" style="rounded=0;whiteSpace=wrap;html=1;fontSize=32;" parent="KLLtWxpl7piehva7nVAB-4" vertex="1">
          <mxGeometry x="680" width="620" height="620" as="geometry" />
        </mxCell>
        <mxCell id="KLLtWxpl7piehva7nVAB-5" value="" style="group;flipV=1;" vertex="1" connectable="0" parent="1">
          <mxGeometry x="5340" y="4410" width="1300" height="1250" as="geometry" />
        </mxCell>
        <mxCell id="761dnnyQ54j-Cl0NHfQN-16851" value="54" style="rounded=0;whiteSpace=wrap;html=1;fontSize=32;" parent="KLLtWxpl7piehva7nVAB-5" vertex="1">
          <mxGeometry y="710" width="540" height="540" as="geometry" />
        </mxCell>
        <mxCell id="761dnnyQ54j-Cl0NHfQN-16852" value="22" style="rounded=0;whiteSpace=wrap;html=1;fontSize=32;" parent="KLLtWxpl7piehva7nVAB-5" vertex="1">
          <mxGeometry x="540" y="1030" width="220" height="220" as="geometry" />
        </mxCell>
        <mxCell id="761dnnyQ54j-Cl0NHfQN-16853" value="20" style="rounded=0;whiteSpace=wrap;html=1;fontSize=32;" parent="KLLtWxpl7piehva7nVAB-5" vertex="1">
          <mxGeometry x="760" y="1050" width="200" height="200" as="geometry" />
        </mxCell>
        <mxCell id="761dnnyQ54j-Cl0NHfQN-16854" value="34" style="rounded=0;whiteSpace=wrap;html=1;fontSize=32;" parent="KLLtWxpl7piehva7nVAB-5" vertex="1">
          <mxGeometry x="960" y="910" width="340" height="340" as="geometry" />
        </mxCell>
        <mxCell id="761dnnyQ54j-Cl0NHfQN-16855" value="9" style="rounded=0;whiteSpace=wrap;html=1;fontSize=32;" parent="KLLtWxpl7piehva7nVAB-5" vertex="1">
          <mxGeometry x="760" y="960" width="90" height="90" as="geometry" />
        </mxCell>
        <mxCell id="761dnnyQ54j-Cl0NHfQN-16856" value="11" style="rounded=0;whiteSpace=wrap;html=1;fontSize=32;" parent="KLLtWxpl7piehva7nVAB-5" vertex="1">
          <mxGeometry x="850" y="940" width="110" height="110" as="geometry" />
        </mxCell>
        <mxCell id="761dnnyQ54j-Cl0NHfQN-16857" value="15" style="rounded=0;whiteSpace=wrap;html=1;fontSize=32;" parent="KLLtWxpl7piehva7nVAB-5" vertex="1">
          <mxGeometry x="540" y="880" width="150" height="150" as="geometry" />
        </mxCell>
        <mxCell id="761dnnyQ54j-Cl0NHfQN-16858" value="7" style="rounded=0;whiteSpace=wrap;html=1;fontSize=32;" parent="KLLtWxpl7piehva7nVAB-5" vertex="1">
          <mxGeometry x="690" y="960" width="70" height="70" as="geometry" />
        </mxCell>
        <mxCell id="761dnnyQ54j-Cl0NHfQN-16859" value="6" style="rounded=0;whiteSpace=wrap;html=1;fontSize=32;" parent="KLLtWxpl7piehva7nVAB-5" vertex="1">
          <mxGeometry x="690" y="900" width="60" height="60" as="geometry" />
        </mxCell>
        <mxCell id="761dnnyQ54j-Cl0NHfQN-16860" value="10" style="rounded=0;whiteSpace=wrap;html=1;fontSize=32;" parent="KLLtWxpl7piehva7nVAB-5" vertex="1">
          <mxGeometry x="750" y="860" width="100" height="100" as="geometry" />
        </mxCell>
        <mxCell id="761dnnyQ54j-Cl0NHfQN-16861" value="2" style="rounded=0;whiteSpace=wrap;html=1;fontSize=32;" parent="KLLtWxpl7piehva7nVAB-5" vertex="1">
          <mxGeometry x="690" y="880" width="20" height="20" as="geometry" />
        </mxCell>
        <mxCell id="761dnnyQ54j-Cl0NHfQN-16862" value="4" style="rounded=0;whiteSpace=wrap;html=1;fontSize=32;" parent="KLLtWxpl7piehva7nVAB-5" vertex="1">
          <mxGeometry x="710" y="860" width="40" height="40" as="geometry" />
        </mxCell>
        <mxCell id="761dnnyQ54j-Cl0NHfQN-16863" value="8" style="rounded=0;whiteSpace=wrap;html=1;fontSize=32;" parent="KLLtWxpl7piehva7nVAB-5" vertex="1">
          <mxGeometry x="850" y="860" width="80" height="80" as="geometry" />
        </mxCell>
        <mxCell id="761dnnyQ54j-Cl0NHfQN-16864" value="3" style="rounded=0;whiteSpace=wrap;html=1;fontSize=32;" parent="KLLtWxpl7piehva7nVAB-5" vertex="1">
          <mxGeometry x="930" y="910" width="30" height="30" as="geometry" />
        </mxCell>
        <mxCell id="761dnnyQ54j-Cl0NHfQN-16865" value="17" style="rounded=0;whiteSpace=wrap;html=1;fontSize=32;" parent="KLLtWxpl7piehva7nVAB-5" vertex="1">
          <mxGeometry x="540" y="710" width="170" height="170" as="geometry" />
        </mxCell>
        <mxCell id="761dnnyQ54j-Cl0NHfQN-16866" value="5" style="rounded=0;whiteSpace=wrap;html=1;fontSize=32;" parent="KLLtWxpl7piehva7nVAB-5" vertex="1">
          <mxGeometry x="930" y="860" width="50" height="50" as="geometry" />
        </mxCell>
        <mxCell id="761dnnyQ54j-Cl0NHfQN-16867" value="32" style="rounded=0;whiteSpace=wrap;html=1;fontSize=32;" parent="KLLtWxpl7piehva7nVAB-5" vertex="1">
          <mxGeometry x="980" y="590" width="320" height="320" as="geometry" />
        </mxCell>
        <mxCell id="761dnnyQ54j-Cl0NHfQN-16868" value="27" style="rounded=0;whiteSpace=wrap;html=1;fontSize=32;" parent="KLLtWxpl7piehva7nVAB-5" vertex="1">
          <mxGeometry x="710" y="590" width="270" height="270" as="geometry" />
        </mxCell>
        <mxCell id="761dnnyQ54j-Cl0NHfQN-16869" value="71" style="rounded=0;whiteSpace=wrap;html=1;fontSize=32;" parent="KLLtWxpl7piehva7nVAB-5" vertex="1">
          <mxGeometry width="710" height="710" as="geometry" />
        </mxCell>
        <mxCell id="761dnnyQ54j-Cl0NHfQN-16870" value="59" style="rounded=0;whiteSpace=wrap;html=1;fontSize=32;" parent="KLLtWxpl7piehva7nVAB-5" vertex="1">
          <mxGeometry x="710" width="590" height="590" as="geometry" />
        </mxCell>
        <mxCell id="KLLtWxpl7piehva7nVAB-6" value="" style="group;flipV=1;" vertex="1" connectable="0" parent="1">
          <mxGeometry x="5330" y="5880" width="1300" height="950" as="geometry" />
        </mxCell>
        <mxCell id="761dnnyQ54j-Cl0NHfQN-17355" value="42" style="rounded=0;whiteSpace=wrap;html=1;fontSize=32;" parent="KLLtWxpl7piehva7nVAB-6" vertex="1">
          <mxGeometry y="530" width="420" height="420" as="geometry" />
        </mxCell>
        <mxCell id="761dnnyQ54j-Cl0NHfQN-17356" value="31" style="rounded=0;whiteSpace=wrap;html=1;fontSize=32;" parent="KLLtWxpl7piehva7nVAB-6" vertex="1">
          <mxGeometry x="420" y="640" width="310" height="310" as="geometry" />
        </mxCell>
        <mxCell id="761dnnyQ54j-Cl0NHfQN-17357" value="27" style="rounded=0;whiteSpace=wrap;html=1;fontSize=32;" parent="KLLtWxpl7piehva7nVAB-6" vertex="1">
          <mxGeometry x="730" y="680" width="270" height="270" as="geometry" />
        </mxCell>
        <mxCell id="761dnnyQ54j-Cl0NHfQN-17358" value="30" style="rounded=0;whiteSpace=wrap;html=1;fontSize=32;" parent="KLLtWxpl7piehva7nVAB-6" vertex="1">
          <mxGeometry x="1000" y="650" width="300" height="300" as="geometry" />
        </mxCell>
        <mxCell id="761dnnyQ54j-Cl0NHfQN-17359" value="24" style="rounded=0;whiteSpace=wrap;html=1;fontSize=32;" parent="KLLtWxpl7piehva7nVAB-6" vertex="1">
          <mxGeometry x="730" y="440" width="240" height="240" as="geometry" />
        </mxCell>
        <mxCell id="761dnnyQ54j-Cl0NHfQN-17360" value="3" style="rounded=0;whiteSpace=wrap;html=1;fontSize=32;" parent="KLLtWxpl7piehva7nVAB-6" vertex="1">
          <mxGeometry x="970" y="650" width="30" height="30" as="geometry" />
        </mxCell>
        <mxCell id="761dnnyQ54j-Cl0NHfQN-17361" value="11" style="rounded=0;whiteSpace=wrap;html=1;fontSize=32;" parent="KLLtWxpl7piehva7nVAB-6" vertex="1">
          <mxGeometry x="420" y="530" width="110" height="110" as="geometry" />
        </mxCell>
        <mxCell id="761dnnyQ54j-Cl0NHfQN-17362" value="20" style="rounded=0;whiteSpace=wrap;html=1;fontSize=32;" parent="KLLtWxpl7piehva7nVAB-6" vertex="1">
          <mxGeometry x="530" y="440" width="200" height="200" as="geometry" />
        </mxCell>
        <mxCell id="761dnnyQ54j-Cl0NHfQN-17363" value="14" style="rounded=0;whiteSpace=wrap;html=1;fontSize=32;fillColor=#CCCCCC;strokeColor=#000000;" parent="KLLtWxpl7piehva7nVAB-6" vertex="1">
          <mxGeometry x="970" y="510" width="140" height="140" as="geometry" />
        </mxCell>
        <mxCell id="761dnnyQ54j-Cl0NHfQN-17364" value="10" style="rounded=0;whiteSpace=wrap;html=1;fontSize=32;fillColor=#CCCCCC;strokeColor=#000000;" parent="KLLtWxpl7piehva7nVAB-6" vertex="1">
          <mxGeometry x="1110" y="550" width="100" height="100" as="geometry" />
        </mxCell>
        <mxCell id="761dnnyQ54j-Cl0NHfQN-17365" value="9" style="rounded=0;whiteSpace=wrap;html=1;fontSize=32;fillColor=#CCCCCC;strokeColor=#000000;" parent="KLLtWxpl7piehva7nVAB-6" vertex="1">
          <mxGeometry x="1210" y="560" width="90" height="90" as="geometry" />
        </mxCell>
        <mxCell id="761dnnyQ54j-Cl0NHfQN-17366" value="1" style="rounded=0;whiteSpace=wrap;html=1;fontSize=32;fillColor=#CCCCCC;strokeColor=#000000;" parent="KLLtWxpl7piehva7nVAB-6" vertex="1">
          <mxGeometry x="1210" y="550" width="10" height="10" as="geometry" />
        </mxCell>
        <mxCell id="761dnnyQ54j-Cl0NHfQN-17367" value="8" style="rounded=0;whiteSpace=wrap;html=1;fontSize=32;fillColor=#CCCCCC;strokeColor=#000000;" parent="KLLtWxpl7piehva7nVAB-6" vertex="1">
          <mxGeometry x="1220" y="480" width="80" height="80" as="geometry" />
        </mxCell>
        <mxCell id="761dnnyQ54j-Cl0NHfQN-17368" value="4" style="rounded=0;whiteSpace=wrap;html=1;fontSize=32;fillColor=#CCCCCC;strokeColor=#000000;" parent="KLLtWxpl7piehva7nVAB-6" vertex="1">
          <mxGeometry x="1110" y="510" width="40" height="40" as="geometry" />
        </mxCell>
        <mxCell id="761dnnyQ54j-Cl0NHfQN-17369" value="7" style="rounded=0;whiteSpace=wrap;html=1;fontSize=32;fillColor=#CCCCCC;strokeColor=#000000;" parent="KLLtWxpl7piehva7nVAB-6" vertex="1">
          <mxGeometry x="1150" y="480" width="70" height="70" as="geometry" />
        </mxCell>
        <mxCell id="761dnnyQ54j-Cl0NHfQN-17370" value="18" style="rounded=0;whiteSpace=wrap;html=1;fontSize=32;fillColor=#CCCCCC;strokeColor=#000000;" parent="KLLtWxpl7piehva7nVAB-6" vertex="1">
          <mxGeometry x="970" y="330" width="180" height="180" as="geometry" />
        </mxCell>
        <mxCell id="761dnnyQ54j-Cl0NHfQN-17371" value="15" style="rounded=0;whiteSpace=wrap;html=1;fontSize=32;fillColor=#CCCCCC;strokeColor=#000000;" parent="KLLtWxpl7piehva7nVAB-6" vertex="1">
          <mxGeometry x="1150" y="330" width="150" height="150" as="geometry" />
        </mxCell>
        <mxCell id="761dnnyQ54j-Cl0NHfQN-17372" value="53" style="rounded=0;whiteSpace=wrap;html=1;fontSize=32;" parent="KLLtWxpl7piehva7nVAB-6" vertex="1">
          <mxGeometry width="530" height="530" as="geometry" />
        </mxCell>
        <mxCell id="761dnnyQ54j-Cl0NHfQN-17373" value="44" style="rounded=0;whiteSpace=wrap;html=1;fontSize=32;" parent="KLLtWxpl7piehva7nVAB-6" vertex="1">
          <mxGeometry x="530" width="440" height="440" as="geometry" />
        </mxCell>
        <mxCell id="761dnnyQ54j-Cl0NHfQN-17374" value="33" style="rounded=0;whiteSpace=wrap;html=1;fontSize=32;fillColor=#f5f5f5;fontColor=#333333;strokeColor=#666666;" parent="KLLtWxpl7piehva7nVAB-6" vertex="1">
          <mxGeometry x="970" width="330" height="330" as="geometry" />
        </mxCell>
        <mxCell id="KLLtWxpl7piehva7nVAB-7" value="" style="group;flipV=1;" vertex="1" connectable="0" parent="1">
          <mxGeometry x="5355" y="7020" width="1300" height="900" as="geometry" />
        </mxCell>
        <mxCell id="761dnnyQ54j-Cl0NHfQN-17586" value="40" style="rounded=0;whiteSpace=wrap;html=1;fontSize=32;" parent="KLLtWxpl7piehva7nVAB-7" vertex="1">
          <mxGeometry y="500" width="400" height="400" as="geometry" />
        </mxCell>
        <mxCell id="761dnnyQ54j-Cl0NHfQN-17587" value="23" style="rounded=0;whiteSpace=wrap;html=1;fontSize=32;" parent="KLLtWxpl7piehva7nVAB-7" vertex="1">
          <mxGeometry x="400" y="670" width="230" height="230" as="geometry" />
        </mxCell>
        <mxCell id="761dnnyQ54j-Cl0NHfQN-17588" value="24" style="rounded=0;whiteSpace=wrap;html=1;fontSize=32;" parent="KLLtWxpl7piehva7nVAB-7" vertex="1">
          <mxGeometry x="630" y="660" width="240" height="240" as="geometry" />
        </mxCell>
        <mxCell id="761dnnyQ54j-Cl0NHfQN-17589" value="17" style="rounded=0;whiteSpace=wrap;html=1;fontSize=32;" parent="KLLtWxpl7piehva7nVAB-7" vertex="1">
          <mxGeometry x="400" y="500" width="170" height="170" as="geometry" />
        </mxCell>
        <mxCell id="761dnnyQ54j-Cl0NHfQN-17590" value="6" style="rounded=0;whiteSpace=wrap;html=1;fontSize=32;" parent="KLLtWxpl7piehva7nVAB-7" vertex="1">
          <mxGeometry x="570" y="610" width="60" height="60" as="geometry" />
        </mxCell>
        <mxCell id="761dnnyQ54j-Cl0NHfQN-17591" value="43" style="rounded=0;whiteSpace=wrap;html=1;fontSize=32;" parent="KLLtWxpl7piehva7nVAB-7" vertex="1">
          <mxGeometry x="870" y="470" width="430" height="430" as="geometry" />
        </mxCell>
        <mxCell id="761dnnyQ54j-Cl0NHfQN-17592" value="5" style="rounded=0;whiteSpace=wrap;html=1;fontSize=32;" parent="KLLtWxpl7piehva7nVAB-7" vertex="1">
          <mxGeometry x="630" y="610" width="50" height="50" as="geometry" />
        </mxCell>
        <mxCell id="761dnnyQ54j-Cl0NHfQN-17593" value="19" style="rounded=0;whiteSpace=wrap;html=1;fontSize=32;" parent="KLLtWxpl7piehva7nVAB-7" vertex="1">
          <mxGeometry x="680" y="470" width="190" height="190" as="geometry" />
        </mxCell>
        <mxCell id="761dnnyQ54j-Cl0NHfQN-17594" value="11" style="rounded=0;whiteSpace=wrap;html=1;fontSize=32;" parent="KLLtWxpl7piehva7nVAB-7" vertex="1">
          <mxGeometry x="570" y="500" width="110" height="110" as="geometry" />
        </mxCell>
        <mxCell id="761dnnyQ54j-Cl0NHfQN-17595" value="50" style="rounded=0;whiteSpace=wrap;html=1;fontSize=32;" parent="KLLtWxpl7piehva7nVAB-7" vertex="1">
          <mxGeometry width="500" height="500" as="geometry" />
        </mxCell>
        <mxCell id="761dnnyQ54j-Cl0NHfQN-17596" value="8" style="rounded=0;whiteSpace=wrap;html=1;fontSize=32;" parent="KLLtWxpl7piehva7nVAB-7" vertex="1">
          <mxGeometry x="500" y="420" width="80" height="80" as="geometry" />
        </mxCell>
        <mxCell id="761dnnyQ54j-Cl0NHfQN-17597" value="7" style="rounded=0;whiteSpace=wrap;html=1;fontSize=32;" parent="KLLtWxpl7piehva7nVAB-7" vertex="1">
          <mxGeometry x="580" y="430" width="70" height="70" as="geometry" />
        </mxCell>
        <mxCell id="761dnnyQ54j-Cl0NHfQN-17598" value="3" style="rounded=0;whiteSpace=wrap;html=1;fontSize=32;" parent="KLLtWxpl7piehva7nVAB-7" vertex="1">
          <mxGeometry x="650" y="470" width="30" height="30" as="geometry" />
        </mxCell>
        <mxCell id="761dnnyQ54j-Cl0NHfQN-17599" value="4" style="rounded=0;whiteSpace=wrap;html=1;fontSize=32;" parent="KLLtWxpl7piehva7nVAB-7" vertex="1">
          <mxGeometry x="650" y="430" width="40" height="40" as="geometry" />
        </mxCell>
        <mxCell id="761dnnyQ54j-Cl0NHfQN-17600" value="14" style="rounded=0;whiteSpace=wrap;html=1;fontSize=32;" parent="KLLtWxpl7piehva7nVAB-7" vertex="1">
          <mxGeometry x="690" y="330" width="140" height="140" as="geometry" />
        </mxCell>
        <mxCell id="761dnnyQ54j-Cl0NHfQN-17601" value="1" style="rounded=0;whiteSpace=wrap;html=1;fontSize=32;" parent="KLLtWxpl7piehva7nVAB-7" vertex="1">
          <mxGeometry x="580" y="420" width="10" height="10" as="geometry" />
        </mxCell>
        <mxCell id="761dnnyQ54j-Cl0NHfQN-17602" value="10" style="rounded=0;whiteSpace=wrap;html=1;fontSize=32;" parent="KLLtWxpl7piehva7nVAB-7" vertex="1">
          <mxGeometry x="590" y="330" width="100" height="100" as="geometry" />
        </mxCell>
        <mxCell id="761dnnyQ54j-Cl0NHfQN-17603" value="9" style="rounded=0;whiteSpace=wrap;html=1;fontSize=32;" parent="KLLtWxpl7piehva7nVAB-7" vertex="1">
          <mxGeometry x="500" y="330" width="90" height="90" as="geometry" />
        </mxCell>
        <mxCell id="761dnnyQ54j-Cl0NHfQN-17604" value="47" style="rounded=0;whiteSpace=wrap;html=1;fontSize=32;" parent="KLLtWxpl7piehva7nVAB-7" vertex="1">
          <mxGeometry x="830" width="470" height="470" as="geometry" />
        </mxCell>
        <mxCell id="761dnnyQ54j-Cl0NHfQN-17605" value="33" style="rounded=0;whiteSpace=wrap;html=1;fontSize=32;" parent="KLLtWxpl7piehva7nVAB-7" vertex="1">
          <mxGeometry x="500" width="330" height="330" as="geometry" />
        </mxCell>
        <mxCell id="KLLtWxpl7piehva7nVAB-8" value="" style="group;flipV=1;" vertex="1" connectable="0" parent="1">
          <mxGeometry x="5345" y="8150" width="1300" height="1040" as="geometry" />
        </mxCell>
        <mxCell id="761dnnyQ54j-Cl0NHfQN-22934" value="47" style="rounded=0;whiteSpace=wrap;html=1;fontSize=32;" parent="KLLtWxpl7piehva7nVAB-8" vertex="1">
          <mxGeometry y="570" width="470" height="470" as="geometry" />
        </mxCell>
        <mxCell id="761dnnyQ54j-Cl0NHfQN-22935" value="37" style="rounded=0;whiteSpace=wrap;html=1;fontSize=32;" parent="KLLtWxpl7piehva7nVAB-8" vertex="1">
          <mxGeometry x="470" y="670" width="370" height="370" as="geometry" />
        </mxCell>
        <mxCell id="761dnnyQ54j-Cl0NHfQN-22936" value="46" style="rounded=0;whiteSpace=wrap;html=1;fontSize=32;" parent="KLLtWxpl7piehva7nVAB-8" vertex="1">
          <mxGeometry x="840" y="580" width="460" height="460" as="geometry" />
        </mxCell>
        <mxCell id="761dnnyQ54j-Cl0NHfQN-22937" value="10" style="rounded=0;whiteSpace=wrap;html=1;fontSize=32;" parent="KLLtWxpl7piehva7nVAB-8" vertex="1">
          <mxGeometry x="470" y="570" width="100" height="100" as="geometry" />
        </mxCell>
        <mxCell id="761dnnyQ54j-Cl0NHfQN-22938" value="14" style="rounded=0;whiteSpace=wrap;html=1;fontSize=32;" parent="KLLtWxpl7piehva7nVAB-8" vertex="1">
          <mxGeometry x="570" y="530" width="140" height="140" as="geometry" />
        </mxCell>
        <mxCell id="761dnnyQ54j-Cl0NHfQN-22939" value="13" style="rounded=0;whiteSpace=wrap;html=1;fontSize=32;" parent="KLLtWxpl7piehva7nVAB-8" vertex="1">
          <mxGeometry x="710" y="540" width="130" height="130" as="geometry" />
        </mxCell>
        <mxCell id="761dnnyQ54j-Cl0NHfQN-22940" value="4" style="rounded=0;whiteSpace=wrap;html=1;fontSize=32;" parent="KLLtWxpl7piehva7nVAB-8" vertex="1">
          <mxGeometry x="840" y="540" width="40" height="40" as="geometry" />
        </mxCell>
        <mxCell id="761dnnyQ54j-Cl0NHfQN-22941" value="8" style="rounded=0;whiteSpace=wrap;html=1;fontSize=32;" parent="KLLtWxpl7piehva7nVAB-8" vertex="1">
          <mxGeometry x="880" y="500" width="80" height="80" as="geometry" />
        </mxCell>
        <mxCell id="761dnnyQ54j-Cl0NHfQN-22942" value="1" style="rounded=0;whiteSpace=wrap;html=1;fontSize=32;" parent="KLLtWxpl7piehva7nVAB-8" vertex="1">
          <mxGeometry x="710" y="530" width="10" height="10" as="geometry" />
        </mxCell>
        <mxCell id="761dnnyQ54j-Cl0NHfQN-22943" value="16" style="rounded=0;whiteSpace=wrap;html=1;fontSize=32;" parent="KLLtWxpl7piehva7nVAB-8" vertex="1">
          <mxGeometry x="720" y="380" width="160" height="160" as="geometry" />
        </mxCell>
        <mxCell id="761dnnyQ54j-Cl0NHfQN-22944" value="11" style="rounded=0;whiteSpace=wrap;html=1;fontSize=32;" parent="KLLtWxpl7piehva7nVAB-8" vertex="1">
          <mxGeometry x="960" y="470" width="110" height="110" as="geometry" />
        </mxCell>
        <mxCell id="761dnnyQ54j-Cl0NHfQN-22945" value="5" style="rounded=0;whiteSpace=wrap;html=1;fontSize=32;" parent="KLLtWxpl7piehva7nVAB-8" vertex="1">
          <mxGeometry x="880" y="450" width="50" height="50" as="geometry" />
        </mxCell>
        <mxCell id="761dnnyQ54j-Cl0NHfQN-22946" value="3" style="rounded=0;whiteSpace=wrap;html=1;fontSize=32;" parent="KLLtWxpl7piehva7nVAB-8" vertex="1">
          <mxGeometry x="930" y="470" width="30" height="30" as="geometry" />
        </mxCell>
        <mxCell id="761dnnyQ54j-Cl0NHfQN-22947" value="23" style="rounded=0;whiteSpace=wrap;html=1;fontSize=32;" parent="KLLtWxpl7piehva7nVAB-8" vertex="1">
          <mxGeometry x="1070" y="350" width="230" height="230" as="geometry" />
        </mxCell>
        <mxCell id="761dnnyQ54j-Cl0NHfQN-22948" value="2" style="rounded=0;whiteSpace=wrap;html=1;fontSize=32;" parent="KLLtWxpl7piehva7nVAB-8" vertex="1">
          <mxGeometry x="930" y="450" width="20" height="20" as="geometry" />
        </mxCell>
        <mxCell id="761dnnyQ54j-Cl0NHfQN-22949" value="12" style="rounded=0;whiteSpace=wrap;html=1;fontSize=32;" parent="KLLtWxpl7piehva7nVAB-8" vertex="1">
          <mxGeometry x="950" y="350" width="120" height="120" as="geometry" />
        </mxCell>
        <mxCell id="761dnnyQ54j-Cl0NHfQN-22950" value="7" style="rounded=0;whiteSpace=wrap;html=1;fontSize=32;" parent="KLLtWxpl7piehva7nVAB-8" vertex="1">
          <mxGeometry x="880" y="380" width="70" height="70" as="geometry" />
        </mxCell>
        <mxCell id="761dnnyQ54j-Cl0NHfQN-22951" value="57" style="rounded=0;whiteSpace=wrap;html=1;fontSize=32;" parent="KLLtWxpl7piehva7nVAB-8" vertex="1">
          <mxGeometry width="570" height="570" as="geometry" />
        </mxCell>
        <mxCell id="761dnnyQ54j-Cl0NHfQN-22952" value="15" style="rounded=0;whiteSpace=wrap;html=1;fontSize=32;" parent="KLLtWxpl7piehva7nVAB-8" vertex="1">
          <mxGeometry x="570" y="380" width="150" height="150" as="geometry" />
        </mxCell>
        <mxCell id="761dnnyQ54j-Cl0NHfQN-22953" value="38" style="rounded=0;whiteSpace=wrap;html=1;fontSize=32;" parent="KLLtWxpl7piehva7nVAB-8" vertex="1">
          <mxGeometry x="570" width="380" height="380" as="geometry" />
        </mxCell>
        <mxCell id="761dnnyQ54j-Cl0NHfQN-22954" value="35" style="rounded=0;whiteSpace=wrap;html=1;fontSize=32;" parent="KLLtWxpl7piehva7nVAB-8" vertex="1">
          <mxGeometry x="950" width="350" height="350" as="geometry" />
        </mxCell>
      </root>
    </mxGraphModel>
  </diagram>
</mxfile>
